<!-- public/frog-hero.svg -->
<svg width="240" height="120" viewBox="0 0 240 120" fill="none" xmlns="http://www.w3.org/2000/svg">
  <defs>
    <linearGradient id="g1" x1="0" y1="0" x2="1" y2="1">
      <stop offset="0" stop-color="#A3F368"/>
      <stop offset="1" stop-color="#22C55E"/>
    </linearGradient>
    <linearGradient id="g2" x1="0" y1="0" x2="1" y2="1">
      <stop offset="0" stop-color="#34D399"/>
      <stop offset="1" stop-color="#16A34A"/>
    </linearGradient>
  </defs>
  <!-- body / head (stylised sprinting frog) -->
  <path d="M28 62c34-18 64-26 96-18 17 4 31 12 42 24 6 6 2 10-5 9-21-4-41-2-62 3-29 7-58 10-74-2-9-7-8-12 3-16z" fill="url(#g1)"/>
  <path d="M110 33c15-7 35-8 47 5 9 9 4 17-7 14-18-4-27-3-44 1-23 6-43 19-60 17 20-22 37-32 64-37z" fill="url(#g2)"/>
  <!-- eye -->
  <circle cx="154" cy="33" r="9" fill="#0B1116"/>
  <circle cx="157" cy="30" r="3.5" fill="#fff"/>
  <!-- speed slashes -->
  <path d="M70 42l-26-8 22 1 4 7zM52 59l-28-6 25 1 3 5zM90 86l-32 8 20-12 12 4z" fill="#0AE07A" opacity=".6"/>
</svg>
